<svg width="222" height="361" viewBox="0 0 222 361" fill="none" xmlns="http://www.w3.org/2000/svg">
<path d="M128.453 194.279C142.125 194.279 143.431 181.183 150.509 172.335C152.327 170.062 153.771 167.762 155.231 165.279C156.266 163.52 159.488 162.486 161.231 161.279C165.655 158.216 169.733 155.219 173.453 151.279C178.885 145.528 183.453 132.175 183.453 124.279C183.453 114.557 185.84 100.575 180.953 91.7793C179.034 88.3247 177.599 84.5772 177.453 80.5016C177.11 70.8912 173.413 61.663 171.676 52.2793C169.845 42.3959 166.291 33.2282 164.009 23.446C163.128 19.6723 158.724 2.27873 155.398 2.00157C152.701 1.77687 143.761 25.7618 142.12 29.6127C138.376 38.3969 135.539 47.6265 131.453 56.2793C126.694 66.3584 127.619 80.0306 121.453 89.2793" stroke="black" stroke-width="3" stroke-linecap="round"/>
<path d="M121.453 89.2793C111.787 89.2793 102.12 89.2793 92.4532 89.2793C89.6258 89.2793 86.0472 88.6757 83.3977 89.8349C80.9522 90.9048 76.0982 92.5884 73.4532 91.0571C71.1952 89.7498 70.2655 86.2295 69.231 84.0571C66.7376 78.8209 62.4622 74.4667 59.5088 69.446C55.8176 63.171 53.5411 56.798 50.4532 50.2793C46.4871 41.9063 42.8049 33.5383 38.6755 25.2793C35.2798 18.4881 31.1297 12.5172 27.231 6.27933C25.7329 3.88238 22.5531 16.8907 21.9532 18.2238C20.1103 22.3191 21.4054 25.9468 20.231 30.0571C17.9154 38.1618 19.4532 48.6131 19.4532 57.0571C19.4532 67.1312 19.4532 77.2053 19.4532 87.2793C19.4532 102.872 21.9912 117.159 23.5088 132.335C24.0632 137.879 27.3747 146.485 31.0088 150.779C33.4781 153.698 36.4759 156.404 39.231 159.057C42.0621 161.783 45.9545 162.503 48.9532 164.835C53.0958 168.057 58.6778 167.497 62.0088 171.779C63.7899 174.069 67.6309 175.239 69.8977 177.279C72.8714 179.956 77.0424 182.587 80.4532 184.779C87.1347 189.075 91.6612 194.615 99.4532 196.779C105.075 198.341 110.574 199.279 116.453 199.279" stroke="black" stroke-width="3" stroke-linecap="round"/>
<path d="M202.453 146.279C198.083 146.279 194.559 142.978 189.842 142.279C181.769 141.083 173.824 141.279 165.675 141.279C160.399 141.279 170.807 151.188 172.675 153.057C176.246 156.627 179.049 164.077 183.453 166.279" stroke="black" stroke-width="3" stroke-linecap="round"/>
<path d="M51.4532 177.279C52.2728 172.772 57.2187 168.828 60.0088 165.502C61.8721 163.28 62.9668 159.577 65.4532 158.057C68.5579 156.16 75.4573 148.806 67.7865 149.335C53.9526 150.289 37.4193 156.093 24.4532 161.279" stroke="black" stroke-width="3" stroke-linecap="round"/>
<path d="M164.453 172.279C170.332 172.279 175.761 179.135 177.231 184.279C179.385 191.818 177.127 197.375 173.675 204.279C171.115 209.4 168.638 216.034 163.675 219.279C156.889 223.716 149.127 226.83 142.453 231.279" stroke="black" stroke-width="3" stroke-linecap="round"/>
<path d="M100.453 228.279C103.047 227.955 92.327 223.661 91.3421 223.224C83.3394 219.667 73.8156 219.185 65.231 217.502C56.1105 215.713 48.4196 211.553 41.231 205.835C34.373 200.38 32.579 195.719 30.231 187.502C29.4866 184.896 28.4533 182.524 28.4533 179.779C28.4533 177.9 30.6732 176.839 31.4533 175.279" stroke="black" stroke-width="3" stroke-linecap="round"/>
<path d="M133.453 218.279C133.453 233.742 132.453 249.618 132.453 265.279" stroke="black" stroke-width="3" stroke-linecap="round"/>
<path d="M131.453 278.279C132.798 278.429 133.54 279.366 134.453 280.279" stroke="black" stroke-width="3" stroke-linecap="round"/>
<path d="M116.453 227.279C116.453 235.747 114.655 243.673 113.675 252.057C112.623 261.058 112.453 269.764 112.453 278.835C112.453 290.983 112.453 303.131 112.453 315.279" stroke="black" stroke-width="3" stroke-linecap="round"/>
<path d="M110.453 323.279C111.446 324.162 112.164 324.279 113.453 324.279" stroke="black" stroke-width="3" stroke-linecap="round"/>
<path d="M34.4531 200.279C27.0469 201.102 20.121 220.509 14.9531 225.279C6.93336 232.682 2.8425 247.988 2.45312 258.502C1.82184 275.546 1.38717 292.305 4.45312 309.168C5.22382 313.407 3.63849 324.628 6.45312 327.724C7.94197 329.361 9.45312 335.087 9.45312 337.279" stroke="black" stroke-width="3" stroke-linecap="round"/>
<path d="M155.453 125.279C155.027 129.119 135.618 127.238 131.453 128.279" stroke="black" stroke-width="3" stroke-linecap="round"/>
<path d="M137.453 128.279C138.759 129.749 138.453 131.427 138.453 133.279" stroke="black" stroke-width="3" stroke-linecap="round"/>
<path d="M103.453 129.279C93.5979 129.279 84.485 132.279 74.4532 132.279" stroke="black" stroke-width="3" stroke-linecap="round"/>
<path d="M80.4532 132.279C81.6859 132.433 82.4532 135.126 82.4532 136.279" stroke="black" stroke-width="3" stroke-linecap="round"/>
<path d="M124.453 169.279C125.078 169.201 132.276 159.996 127.453 160.279C123.188 160.53 127.932 168.279 123.453 168.279C120.759 168.279 117.223 161.954 116.675 162.502C113.157 166.02 119.978 169.279 122.453 169.279" stroke="black" stroke-width="3" stroke-linecap="round"/>
<path d="M125.453 171.279C125.453 175.113 125.453 178.946 125.453 182.779C125.453 184.184 124.878 186.279 126.787 186.279C128.377 186.279 123.876 187.568 122.453 188.279" stroke="black" stroke-width="3" stroke-linecap="round"/>
<path d="M165.453 93.2793C165.023 85.7524 160.459 78.9385 159.509 71.3349C158.803 65.691 159.1 59.9513 158.398 54.3349C157.785 49.4358 155.394 44.7041 154.509 39.8349C154.112 37.6546 153.168 44.7816 152.898 45.6682C152.062 48.4155 150.745 50.9394 150.009 53.7793C148.772 58.5504 149.583 63.94 148.231 68.5016C147.144 72.1686 148.652 76.9034 147.231 80.2793C145.191 85.1248 145.86 93.2793 152.453 93.2793" stroke="black" stroke-width="3" stroke-linecap="round"/>
<path d="M57.4531 96.2794C56.9008 90.7563 51.4758 83.7849 49.1198 78.7239C47.7766 75.8385 46.9085 71.5335 46.5087 68.335C45.8541 63.0983 44.0797 59.1194 40.4531 55.2794C37.5175 52.1711 35.4273 46.9132 34.5087 42.7794C33.8636 39.8766 32.727 41.2692 32.5087 43.7794C32.1509 47.8938 32.4531 52.1459 32.4531 56.2794C32.4531 67.0278 31.4531 77.7022 31.4531 88.2794C31.4531 98.0265 35.7012 101.279 45.4531 101.279" stroke="black" stroke-width="3" stroke-linecap="round"/>
<path d="M142.453 145.279C139.393 147.422 134.831 144.063 132.453 142.279" stroke="black" stroke-width="3" stroke-linecap="round"/>
<path d="M106.453 142.279C106.149 145.02 102.803 150.104 100.453 151.279" stroke="black" stroke-width="3" stroke-linecap="round"/>
<path d="M181.453 255.279C185.094 259.375 180.874 263.539 176.453 263.279C172.147 263.026 175.426 255.293 177.453 254.279" stroke="black" stroke-width="3" stroke-linecap="round"/>
<path d="M178.453 253.279C180.443 251.041 179.453 246.172 179.453 243.335C179.453 239.511 176.362 240.279 173.453 240.279C170.574 240.279 168.747 244.069 169.953 246.724C170.44 247.794 173.164 253.235 172.453 253.279C167.555 253.586 160.006 262.995 167.675 263.279C172.114 263.444 175.102 262.422 173.453 267.779C172.629 270.459 170.941 276.279 175.453 276.279C179.445 276.279 181.49 276.376 182.953 272.279C184.475 268.017 182.036 264.407 188.453 266.057C191.186 266.76 195.737 268.905 196.398 264.279C196.631 262.648 197.316 255.383 195.453 255.279C192.348 255.107 189.418 254.807 186.953 256.724C185.275 258.029 187.846 251.753 188.231 250.502C188.775 248.734 189.285 244.279 186.898 244.279C182.937 244.279 183.125 247.771 181.453 250.279" stroke="black" stroke-width="3" stroke-linecap="round"/>
<path d="M85.1919 252.343C88.8326 256.438 84.6125 260.603 80.1919 260.343C75.8859 260.089 79.1644 252.356 81.1919 251.343" stroke="black" stroke-width="3" stroke-linecap="round"/>
<path d="M82.1918 250.342C84.182 248.104 83.1918 243.235 83.1918 240.398C83.1918 236.574 80.1006 237.342 77.1918 237.342C74.3122 237.342 72.4852 241.132 73.6918 243.787C74.1782 244.857 76.9023 250.298 76.1918 250.342C71.2939 250.649 63.7447 260.058 71.4141 260.342C75.8527 260.507 78.8404 259.485 77.1918 264.842C76.3673 267.522 74.6794 273.342 79.1918 273.342C83.1834 273.342 85.2286 273.439 86.6918 269.342C88.214 265.08 85.7749 261.47 92.1918 263.12C94.9246 263.823 99.4754 265.968 100.136 261.342C100.369 259.711 101.055 252.446 99.1918 252.342C96.0871 252.17 93.1569 251.87 90.6918 253.787C89.0138 255.092 91.5845 248.816 91.9696 247.565C92.5136 245.797 93.0233 241.342 90.6363 241.342C86.676 241.342 86.8641 244.834 85.1918 247.342" stroke="black" stroke-width="3" stroke-linecap="round"/>
<path d="M191.192 309.343C194.833 313.438 190.612 317.603 186.192 317.343C181.886 317.089 185.164 309.356 187.192 308.343" stroke="black" stroke-width="3" stroke-linecap="round"/>
<path d="M188.192 307.342C190.182 305.104 189.192 300.235 189.192 297.398C189.192 293.574 186.101 294.342 183.192 294.342C180.312 294.342 178.485 298.132 179.692 300.787C180.178 301.857 182.902 307.298 182.192 307.342C177.294 307.649 169.745 317.058 177.414 317.342C181.853 317.507 184.84 316.485 183.192 321.842C182.367 324.522 180.679 330.342 185.192 330.342C189.183 330.342 191.229 330.439 192.692 326.342C194.214 322.08 191.775 318.47 198.192 320.12C200.925 320.823 205.475 322.968 206.136 318.342C206.369 316.711 207.055 309.446 205.192 309.342C202.087 309.17 199.157 308.87 196.692 310.787C195.014 312.092 197.584 305.816 197.97 304.565C198.514 302.797 199.023 298.342 196.636 298.342C192.676 298.342 192.864 301.834 191.192 304.342" stroke="black" stroke-width="3" stroke-linecap="round"/>
<path d="M35.1919 303.343C38.8326 307.438 34.6125 311.603 30.1919 311.343C25.8859 311.089 29.1644 303.356 31.1919 302.343" stroke="black" stroke-width="3" stroke-linecap="round"/>
<path d="M32.1917 301.342C34.1818 299.104 33.1917 294.235 33.1917 291.398C33.1917 287.574 30.1005 288.342 27.1917 288.342C24.3121 288.342 22.4851 292.132 23.6917 294.787C24.178 295.857 26.9022 301.298 26.1917 301.342C21.2937 301.649 13.7446 311.058 21.4139 311.342C25.8526 311.507 28.8403 310.485 27.1917 315.842C26.3672 318.522 24.6793 324.342 29.1917 324.342C33.1833 324.342 35.2285 324.439 36.6917 320.342C38.2139 316.08 35.7748 312.47 42.1917 314.12C44.9245 314.823 49.4753 316.968 50.1362 312.342C50.3692 310.711 51.055 303.446 49.1917 303.342C46.087 303.17 43.1568 302.87 40.6917 304.787C39.0137 306.092 41.5844 299.816 41.9695 298.565C42.5135 296.797 43.0232 292.342 40.6362 292.342C36.6759 292.342 36.864 295.834 35.1917 298.342" stroke="black" stroke-width="3" stroke-linecap="round"/>
<path d="M150.453 291.279C158.537 292.178 147.453 300.817 147.453 294.279" stroke="black" stroke-width="3" stroke-linecap="round"/>
<path d="M158.453 304.279C165.039 305.011 159.976 314.483 154.675 314.279C150.789 314.13 152.082 308.34 151.398 305.946C150.82 303.923 148.303 308.961 146.342 309.724C137.172 313.29 136.144 302.353 141.953 297.835C145.484 295.089 141.871 298.145 139.453 298.279C135.517 298.498 135.453 296.781 135.453 293.279C135.453 287.822 139.446 283.595 145.453 283.279C148.193 283.135 150.453 285.474 150.453 282.835C150.453 279.369 154.304 279.279 156.898 279.279C161.293 279.279 161.715 281.679 163.231 285.279C164.209 287.603 161.568 290.981 162.564 292.724C163.487 294.339 167.857 294.531 169.231 297.279C170.502 299.822 169.127 302.279 166.453 302.279" stroke="black" stroke-width="3" stroke-linecap="round"/>
<path d="M59.1969 336.279C67.281 337.178 56.1969 345.817 56.1969 339.279" stroke="black" stroke-width="3" stroke-linecap="round"/>
<path d="M67.197 349.279C73.7829 350.011 68.7199 359.483 63.4192 359.279C59.5324 359.13 60.8255 353.34 60.1414 350.946C59.5635 348.923 57.0465 353.961 55.0858 354.724C45.9156 358.29 44.8874 347.353 50.697 342.835C54.2278 340.089 50.615 343.145 48.197 343.279C44.2608 343.498 44.197 341.781 44.197 338.279C44.197 332.822 48.1898 328.595 54.197 328.279C56.9366 328.135 59.197 330.474 59.197 327.835C59.197 324.369 63.0483 324.279 65.6414 324.279C70.0366 324.279 70.4586 326.679 71.9747 330.279C72.9532 332.603 70.3122 335.981 71.3081 337.724C72.231 339.339 76.6005 339.531 77.9747 342.279C79.2459 344.822 77.8704 347.279 75.197 347.279" stroke="black" stroke-width="3" stroke-linecap="round"/>
<path d="M139.197 242.279C147.281 243.178 136.197 251.817 136.197 245.279" stroke="black" stroke-width="3" stroke-linecap="round"/>
<path d="M147.197 255.279C153.783 256.011 148.72 265.483 143.419 265.279C139.532 265.13 140.825 259.34 140.141 256.946C139.563 254.923 137.047 259.961 135.086 260.724C125.916 264.29 124.887 253.353 130.697 248.835C134.228 246.089 130.615 249.145 128.197 249.279C124.261 249.498 124.197 247.781 124.197 244.279C124.197 238.822 128.19 234.595 134.197 234.279C136.937 234.135 139.197 236.474 139.197 233.835C139.197 230.369 143.048 230.279 145.641 230.279C150.037 230.279 150.459 232.679 151.975 236.279C152.953 238.603 150.312 241.981 151.308 243.724C152.231 245.339 156.6 245.531 157.975 248.279C159.246 250.822 157.87 253.279 155.197 253.279" stroke="black" stroke-width="3" stroke-linecap="round"/>
<path d="M78.1969 296.279C86.281 297.178 75.1969 305.817 75.1969 299.279" stroke="black" stroke-width="3" stroke-linecap="round"/>
<path d="M86.197 309.279C92.7829 310.011 87.7199 319.483 82.4192 319.279C78.5324 319.13 79.8255 313.34 79.1414 310.946C78.5635 308.923 76.0465 313.961 74.0858 314.724C64.9156 318.29 63.8874 307.353 69.697 302.835C73.2278 300.089 69.615 303.145 67.197 303.279C63.2608 303.498 63.197 301.781 63.197 298.279C63.197 292.822 67.1898 288.595 73.197 288.279C75.9366 288.135 78.197 290.474 78.197 287.835C78.197 284.369 82.0483 284.279 84.6414 284.279C89.0366 284.279 89.4586 286.679 90.9747 290.279C91.9532 292.603 89.3122 295.981 90.3081 297.724C91.231 299.339 95.6005 299.531 96.9747 302.279C98.2459 304.822 96.8704 307.279 94.197 307.279" stroke="black" stroke-width="3" stroke-linecap="round"/>
<path d="M34.1969 240.279C42.281 241.178 31.1969 249.817 31.1969 243.279" stroke="black" stroke-width="3" stroke-linecap="round"/>
<path d="M42.1968 253.279C48.7828 254.011 43.7197 263.483 38.4191 263.279C34.5323 263.13 35.8254 257.34 35.1413 254.946C34.5633 252.923 32.0464 257.961 30.0857 258.724C20.9155 262.29 19.8872 251.353 25.6968 246.835C29.2276 244.089 25.6149 247.145 23.1968 247.279C19.2607 247.498 19.1968 245.781 19.1968 242.279C19.1968 236.822 23.1896 232.595 29.1968 232.279C31.9365 232.135 34.1968 234.474 34.1968 231.835C34.1968 228.369 38.0481 228.279 40.6413 228.279C45.0364 228.279 45.4585 230.679 46.9746 234.279C47.9531 236.603 45.3121 239.981 46.3079 241.724C47.2308 243.339 51.6003 243.531 52.9746 246.279C54.2457 248.822 52.8702 251.279 50.1968 251.279" stroke="black" stroke-width="3" stroke-linecap="round"/>
<path d="M133.197 331.279C141.281 332.178 130.197 340.817 130.197 334.279" stroke="black" stroke-width="3" stroke-linecap="round"/>
<path d="M141.197 344.279C147.783 345.011 142.72 354.483 137.419 354.279C133.532 354.13 134.825 348.34 134.141 345.946C133.563 343.923 131.047 348.961 129.086 349.724C119.916 353.29 118.887 342.353 124.697 337.835C128.228 335.089 124.615 338.145 122.197 338.279C118.261 338.498 118.197 336.781 118.197 333.279C118.197 327.822 122.19 323.595 128.197 323.279C130.937 323.135 133.197 325.474 133.197 322.835C133.197 319.369 137.048 319.279 139.641 319.279C144.037 319.279 144.459 321.679 145.975 325.279C146.953 327.603 144.312 330.981 145.308 332.724C146.231 334.339 150.6 334.531 151.975 337.279C153.246 339.822 151.87 342.279 149.197 342.279" stroke="black" stroke-width="3" stroke-linecap="round"/>
<path d="M137.453 215.279C140.113 212.288 133.73 213.279 131.953 213.279C128.737 213.279 128.453 217.917 128.453 220.279" stroke="black" stroke-width="3" stroke-linecap="round"/>
<path d="M122.453 226.279C122.453 219.734 115.893 222.56 112.453 224.279" stroke="black" stroke-width="3" stroke-linecap="round"/>
<path d="M173.453 131.279C173.59 132.377 193.687 130.279 196.453 130.279" stroke="black" stroke-width="3" stroke-linecap="round"/>
<path d="M53.4531 142.279C42.0232 142.279 32.4606 150.279 21.4531 150.279" stroke="black" stroke-width="3" stroke-linecap="round"/>
<path d="M140.453 129.279C140.735 131.815 143.801 133.487 141.231 136.057C139.045 138.243 139.453 131.032 139.453 130.279" stroke="black" stroke-width="3" stroke-linecap="round"/>
<path d="M82.4532 132.279C83.6354 133.609 85.964 137.802 83.4532 139.057C82.4648 139.551 81.4532 134.307 81.4532 133.279" stroke="black" stroke-width="3" stroke-linecap="round"/>
<path d="M175.453 201.279C177.308 201.691 178.248 204.374 180.009 205.335C182.881 206.901 186.03 209.087 188.453 211.279C194.112 216.399 201.033 219.198 204.898 226.224C208.939 233.571 210.85 243.447 211.564 251.668C212.573 263.264 214.453 273.784 214.453 285.502C214.453 307.207 213.713 330.058 220.453 350.279" stroke="black" stroke-width="3" stroke-linecap="round"/>
</svg>
